<svg version="1" xmlns="http://www.w3.org/2000/svg" width="1266.667" height="1266.667" viewBox="0 0 950.000000 950.000000"><path d="M73 410.6c0 235.1.4 410.4.9 410.4s1.4 1.3 2.1 3c.7 1.6 1.6 3 2.1 3 .4 0 1.1.9 1.4 2 .3 1.1 1.2 2.6 1.8 3.2.7.7 2.8 3.3 4.7 5.8 7.4 9.6 25.6 28.3 34.4 35.5 2.7 2.2 5.9 4.9 7 6 1.2 1.1 3.9 3.4 6.1 5 4.6 3.5 7.2 5.6 8.9 7 .6.6 2.7 2.2 4.6 3.5 1.9 1.3 3.7 2.7 4 3 .5.7 18 12.8 20.8 14.5.9.5 1.9 1.2 2.2 1.5 1.5 1.5 10 7 10.8 7 .6 0 1.2.3 1.4.8.8 2 32.4 20.6 42.8 25.2l5.5 2.5 321.8.2 321.7.2V.1H73v410.5z"/></svg>